<svg width="79" height="79" viewBox="0 0 79 79" fill="none" xmlns="http://www.w3.org/2000/svg">
<path d="M25 50H45" stroke="#F3F3F3" stroke-width="5" stroke-linecap="round"/>
<path d="M25 34H54" stroke="#F3F3F3" stroke-width="5" stroke-linecap="round"/>
<path d="M57.75 7.88304C52.3812 4.77744 46.1481 3 39.5 3C19.3416 3 3 19.3416 3 39.5C3 45.3389 4.37101 50.8573 6.80863 55.7516C7.45643 57.0521 7.67204 58.5388 7.29649 59.9422L5.12251 68.0675C4.17877 71.5945 7.40559 74.8211 10.9327 73.8775L19.0578 71.7036C20.4613 71.328 21.9479 71.5437 23.2485 72.1912C28.1426 74.6291 33.6611 76 39.5 76C59.6582 76 76 59.6582 76 39.5C76 32.8519 74.2225 26.6187 71.117 21.25" stroke="#F3F3F3" stroke-width="5" stroke-linecap="round"/>
</svg>
